<svg width="512" height="512" viewBox="0 0 512 512" fill="none" xmlns="http://www.w3.org/2000/svg">
  <rect width="512" height="512" rx="64" fill="#0A0A0A"/>
  <g opacity="0.25">
    <path d="M96 128H416" stroke="#27272A" stroke-width="4" stroke-linecap="round"/>
    <path d="M96 192H416" stroke="#27272A" stroke-width="4" stroke-linecap="round"/>
    <path d="M96 256H416" stroke="#27272A" stroke-width="4" stroke-linecap="round"/>
    <path d="M96 320H416" stroke="#27272A" stroke-width="4" stroke-linecap="round"/>
    <path d="M96 384H416" stroke="#27272A" stroke-width="4" stroke-linecap="round"/>
    <path d="M128 96V416" stroke="#27272A" stroke-width="4" stroke-linecap="round"/>
    <path d="M192 96V416" stroke="#27272A" stroke-width="4" stroke-linecap="round"/>
    <path d="M256 96V416" stroke="#27272A" stroke-width="4" stroke-linecap="round"/>
    <path d="M320 96V416" stroke="#27272A" stroke-width="4" stroke-linecap="round"/>
    <path d="M384 96V416" stroke="#27272A" stroke-width="4" stroke-linecap="round"/>
  </g>

  <g>
    <rect x="160" y="240" width="32" height="32" rx="6" fill="#F4F4F5"/>
    <rect x="192" y="240" width="32" height="32" rx="6" fill="#F4F4F5"/>
    <rect x="224" y="240" width="32" height="32" rx="6" fill="#F4F4F5"/>
    <rect x="256" y="240" width="32" height="32" rx="6" fill="#F4F4F5"/>
    <rect x="288" y="240" width="32" height="32" rx="6" fill="#F4F4F5"/>
    <rect x="320" y="240" width="32" height="32" rx="6" fill="#F4F4F5"/>

    <rect x="192" y="208" width="32" height="32" rx="6" fill="#F4F4F5"/>
    <rect x="224" y="176" width="32" height="32" rx="6" fill="#F4F4F5"/>
    <rect x="256" y="176" width="32" height="32" rx="6" fill="#F4F4F5"/>
    <rect x="288" y="208" width="32" height="32" rx="6" fill="#F4F4F5"/>

    <rect x="224" y="304" width="32" height="32" rx="6" fill="#F4F4F5"/>
    <rect x="256" y="336" width="32" height="32" rx="6" fill="#F4F4F5"/>
    <rect x="288" y="336" width="32" height="32" rx="6" fill="#F4F4F5"/>
    <rect x="320" y="304" width="32" height="32" rx="6" fill="#F4F4F5"/>
  </g>

  <rect x="256" y="208" width="32" height="32" rx="6" fill="#EF4444"/>
  <path d="M268 220H276" stroke="#0A0A0A" stroke-width="6" stroke-linecap="round"/>
  <path d="M292 220H300" stroke="#0A0A0A" stroke-width="6" stroke-linecap="round"/>
  <path d="M276 238C281 244 287 244 292 238" stroke="#0A0A0A" stroke-width="6" stroke-linecap="round"/>
</svg>

