<svg width="800" height="600" viewBox="0 0 800 600" xmlns="http://www.w3.org/2000/svg">
  <rect width="800" height="600" fill="#000000"/>
  
  <!-- Cell Structure (Center) -->
  <!-- Core (Red) -->
  <g transform="translate(400, 300)">
    <circle cx="0" cy="0" r="4" fill="#EF4444" opacity="0.9"/>
    <circle cx="6" cy="2" r="4" fill="#EF4444" opacity="0.9"/>
    <circle cx="-5" cy="4" r="4" fill="#EF4444" opacity="0.9"/>
    <circle cx="2" cy="-6" r="4" fill="#EF4444" opacity="0.9"/>
    <circle cx="-3" cy="-3" r="4" fill="#EF4444" opacity="0.9"/>
    
    <!-- Shell 1 (Green) -->
    <circle cx="15" cy="0" r="4" fill="#22C55E" opacity="0.8"/>
    <circle cx="12" cy="10" r="4" fill="#22C55E" opacity="0.8"/>
    <circle cx="0" cy="15" r="4" fill="#22C55E" opacity="0.8"/>
    <circle cx="-12" cy="10" r="4" fill="#22C55E" opacity="0.8"/>
    <circle cx="-15" cy="0" r="4" fill="#22C55E" opacity="0.8"/>
    <circle cx="-12" cy="-10" r="4" fill="#22C55E" opacity="0.8"/>
    <circle cx="0" cy="-15" r="4" fill="#22C55E" opacity="0.8"/>
    <circle cx="12" cy="-10" r="4" fill="#22C55E" opacity="0.8"/>
    
    <!-- Shell 2 (Blue) -->
    <circle cx="25" cy="5" r="4" fill="#3B82F6" opacity="0.7"/>
    <circle cx="20" cy="20" r="4" fill="#3B82F6" opacity="0.7"/>
    <circle cx="5" cy="25" r="4" fill="#3B82F6" opacity="0.7"/>
    <circle cx="-15" cy="22" r="4" fill="#3B82F6" opacity="0.7"/>
    <circle cx="-28" cy="8" r="4" fill="#3B82F6" opacity="0.7"/>
    <circle cx="-26" cy="-12" r="4" fill="#3B82F6" opacity="0.7"/>
    <circle cx="-10" cy="-26" r="4" fill="#3B82F6" opacity="0.7"/>
    <circle cx="12" cy="-24" r="4" fill="#3B82F6" opacity="0.7"/>
    <circle cx="26" cy="-10" r="4" fill="#3B82F6" opacity="0.7"/>
  </g>

  <!-- Snake Structure (Top Left to Bottom Right) -->
  <g transform="translate(100, 100) rotate(30)">
     <!-- Head (Yellow) -->
     <circle cx="0" cy="0" r="4" fill="#EAB308" opacity="0.9"/>
     <circle cx="10" cy="0" r="4" fill="#EAB308" opacity="0.9"/>
     
     <!-- Body (Cyan) -->
     <circle cx="20" cy="2" r="4" fill="#06B6D4" opacity="0.8"/>
     <circle cx="30" cy="5" r="4" fill="#06B6D4" opacity="0.8"/>
     <circle cx="40" cy="2" r="4" fill="#06B6D4" opacity="0.8"/>
     <circle cx="50" cy="-2" r="4" fill="#06B6D4" opacity="0.8"/>
     <circle cx="60" cy="-5" r="4" fill="#06B6D4" opacity="0.8"/>
     <circle cx="70" cy="-2" r="4" fill="#06B6D4" opacity="0.8"/>
     
     <!-- Tail (Magenta) -->
     <circle cx="80" cy="0" r="4" fill="#D946EF" opacity="0.8"/>
     <circle cx="90" cy="0" r="4" fill="#D946EF" opacity="0.8"/>
  </g>
  
  <!-- Another Snake (Bottom Left) -->
  <g transform="translate(150, 450) rotate(-15)">
     <circle cx="0" cy="0" r="4" fill="#EAB308" opacity="0.9"/>
     <circle cx="12" cy="0" r="4" fill="#06B6D4" opacity="0.8"/>
     <circle cx="24" cy="0" r="4" fill="#D946EF" opacity="0.8"/>
     <circle cx="36" cy="0" r="4" fill="#EAB308" opacity="0.9"/>
     <circle cx="48" cy="0" r="4" fill="#06B6D4" opacity="0.8"/>
     <circle cx="60" cy="0" r="4" fill="#D946EF" opacity="0.8"/>
  </g>

  <!-- Gliders/Small clusters -->
  <g transform="translate(600, 150)">
    <circle cx="0" cy="0" r="4" fill="#EF4444" opacity="0.8"/>
    <circle cx="8" cy="8" r="4" fill="#22C55E" opacity="0.8"/>
    <circle cx="-8" cy="8" r="4" fill="#3B82F6" opacity="0.8"/>
  </g>

  <g transform="translate(650, 400)">
    <circle cx="0" cy="0" r="4" fill="#EF4444" opacity="0.8"/>
    <circle cx="8" cy="8" r="4" fill="#22C55E" opacity="0.8"/>
    <circle cx="-8" cy="8" r="4" fill="#3B82F6" opacity="0.8"/>
  </g>
  
  <!-- Background Noise -->
  <circle cx="50" cy="500" r="2" fill="#FFFFFF" opacity="0.2"/>
  <circle cx="700" cy="50" r="2" fill="#FFFFFF" opacity="0.2"/>
  <circle cx="300" cy="50" r="2" fill="#FFFFFF" opacity="0.2"/>
  <circle cx="500" cy="550" r="2" fill="#FFFFFF" opacity="0.2"/>
  
</svg>